<svg width="60" height="60" viewBox="0 0 60 60" fill="none" xmlns="http://www.w3.org/2000/svg">
<g clip-path="url(#clip0_475_2119)">
<path d="M53.75 15H11.25C8.385 15 5.6975 13.5825 4.07 11.2525C5.655 8.985 8.2825 7.5 11.25 7.5H58.75C59.44 7.5 60 6.94 60 6.25C60 5.56 59.44 5 58.75 5H11.25C5.0375 5 0 10.0375 0 16.25V43.75C0 49.9625 5.0375 55 11.25 55H53.75C57.2025 55 60 52.2025 60 48.75V21.25C60 17.7975 57.2025 15 53.75 15ZM57.5 48.75C57.5 50.8175 55.8175 52.5 53.75 52.5H11.25C6.425 52.5 2.5 48.575 2.5 43.75V16.25C2.5 15.38 2.6275 14.54 2.865 13.7475C4.98 16.1025 8.025 17.5 11.25 17.5H53.75C55.8175 17.5 57.5 19.1825 57.5 21.25V48.75ZM52.5 35C52.5 36.38 51.38 37.5 50 37.5C48.62 37.5 47.5 36.38 47.5 35C47.5 33.62 48.62 32.5 50 32.5C51.38 32.5 52.5 33.62 52.5 35Z" fill="#F8F8EA"/>
</g>
<defs>
<clipPath id="clip0_475_2119">
<rect width="60" height="60" fill="white"/>
</clipPath>
</defs>
</svg>
