<svg width="60" height="60" viewBox="0 0 60 60" fill="none" xmlns="http://www.w3.org/2000/svg">
<g clip-path="url(#clip0_475_2115)">
<path d="M40 30.0001H35V25.0001C35 22.2426 32.7575 20.0001 30 20.0001C27.2425 20.0001 25 22.2426 25 25.0001V30.0001H20C17.2425 30.0001 15 32.2426 15 35.0001C15 37.7576 17.2425 40.0001 20 40.0001H25V45.0001C25 47.7576 27.2425 50.0001 30 50.0001C32.7575 50.0001 35 47.7576 35 45.0001V40.0001H40C42.7575 40.0001 45 37.7576 45 35.0001C45 32.2426 42.7575 30.0001 40 30.0001ZM40 37.5001H33.75C33.06 37.5001 32.5 38.0601 32.5 38.7501V45.0001C32.5 46.3801 31.3775 47.5001 30 47.5001C28.6225 47.5001 27.5 46.3801 27.5 45.0001V38.7501C27.5 38.0601 26.94 37.5001 26.25 37.5001H20C18.6225 37.5001 17.5 36.3801 17.5 35.0001C17.5 33.6201 18.6225 32.5001 20 32.5001H26.25C26.94 32.5001 27.5 31.9401 27.5 31.2501V25.0001C27.5 23.6201 28.6225 22.5001 30 22.5001C31.3775 22.5001 32.5 23.6201 32.5 25.0001V31.2501C32.5 31.9401 33.06 32.5001 33.75 32.5001H40C41.3775 32.5001 42.5 33.6201 42.5 35.0001C42.5 36.3801 41.3775 37.5001 40 37.5001ZM55.0425 14.5776L36.2925 1.92764C32.4725 -0.652363 27.5325 -0.654863 23.7075 1.92764L4.9575 14.5776C1.8525 16.6726 0 20.1576 0 23.9001V48.7476C0 54.9501 5.0475 59.9976 11.25 59.9976H48.75C54.9525 59.9976 60 54.9501 60 48.7476V23.9026C60 20.1601 58.1475 16.6701 55.0425 14.5776ZM57.5 48.7501C57.5 53.5751 53.575 57.5001 48.75 57.5001H11.25C6.425 57.5001 2.5 53.5751 2.5 48.7501V23.9026C2.5 20.9926 3.9425 18.2801 6.355 16.6501L25.105 3.99764C26.5925 2.99514 28.295 2.49264 30 2.49264C31.705 2.49264 33.4075 2.99264 34.895 3.99764L53.645 16.6501C56.06 18.2801 57.5 20.9926 57.5 23.9026V48.7501Z" fill="#F8F8EA"/>
</g>
<defs>
<clipPath id="clip0_475_2115">
<rect width="60" height="60" fill="white"/>
</clipPath>
</defs>
</svg>
