<svg width="60" height="60" viewBox="0 0 60 60" fill="none" xmlns="http://www.w3.org/2000/svg">
<g clip-path="url(#clip0_475_2121)">
<path d="M57.6125 26.51C56.1375 25.2775 54.2275 24.7675 52.3625 25.105L36.2125 28.04C33.53 28.5275 31.3025 30.1625 30 32.38C28.6975 30.16 26.4675 28.5275 23.785 28.04L7.635 25.1025C5.74 24.755 3.805 25.265 2.3275 26.5025C0.8475 27.7375 0 29.55 0 31.475V54.5625L30 60.0175L60 54.5625V31.5925C60 29.63 59.13 27.7775 57.6125 26.51ZM28.75 57.25L2.5 52.4775V31.4775C2.5 30.295 3.02 29.1825 3.93 28.425C4.8375 27.6675 6.025 27.3525 7.19 27.565L23.34 30.5025C26.475 31.0725 28.7525 33.7975 28.7525 36.985V57.25H28.75ZM57.5 52.4775L31.25 57.25V36.985C31.25 33.7975 33.525 31.07 36.6625 30.5L52.8125 27.5625C53.9325 27.36 55.105 27.6725 56.01 28.43C56.9575 29.22 57.5 30.3725 57.5 31.5925V52.4775ZM30 25C36.8925 25 42.5 19.3925 42.5 12.5C42.5 5.6075 36.8925 0 30 0C23.1075 0 17.5 5.6075 17.5 12.5C17.5 19.3925 23.1075 25 30 25ZM30 2.5C35.515 2.5 40 6.985 40 12.5C40 18.015 35.515 22.5 30 22.5C24.485 22.5 20 18.015 20 12.5C20 6.985 24.485 2.5 30 2.5Z" fill="#F8F8EA"/>
</g>
<defs>
<clipPath id="clip0_475_2121">
<rect width="60" height="60" fill="white"/>
</clipPath>
</defs>
</svg>
