<svg width="554" height="554" viewBox="0 0 554 554" fill="none" xmlns="http://www.w3.org/2000/svg">
<g clip-path="url(#clip0_93_2005)">
<path d="M444.332 284.818L451.454 282.141L451.362 270.308L444.195 267.729L444.146 261.768L474.919 273.344L474.96 278.779L444.371 290.824L444.326 284.819L444.332 284.818ZM456.289 272.116L456.353 280.352L467.54 276.156L456.286 272.113L456.289 272.116Z" fill="white"/>
<path d="M441.255 311.034L470.857 319.122L467.736 330.579C466.981 333.341 465.706 335.392 463.901 336.73C462.096 338.069 459.994 338.411 457.602 337.755C456.305 337.399 455.23 336.727 454.38 335.741C453.529 334.749 452.983 333.695 452.746 332.572C451.768 333.94 450.53 334.918 449.04 335.51C447.544 336.102 445.855 336.136 443.965 335.622C441.23 334.875 439.341 333.352 438.303 331.052C437.263 328.757 437.168 326.043 438.022 322.914L441.259 311.037L441.255 311.034ZM457.777 321.452L456.254 327.033C455.447 329.989 456.23 331.796 458.598 332.444C460.965 333.093 462.56 331.906 463.382 328.89L464.876 323.395L457.771 321.453L457.777 321.452ZM444.623 317.856L443.047 323.648C442.042 327.338 442.934 329.569 445.725 330.329C448.545 331.1 450.459 329.641 451.467 325.947L453.042 320.155L444.629 317.855L444.623 317.856Z" fill="white"/>
<path d="M419.226 364.788C420.671 362.418 422.47 360.567 424.618 359.226C426.77 357.888 429.245 357.244 432.039 357.29C434.834 357.336 437.668 358.237 440.541 359.986C444.781 362.574 447.314 365.835 448.132 369.772C448.95 373.71 448.248 377.498 446.029 381.14C444.099 384.308 441.625 386.466 438.612 387.622C435.595 388.776 432.622 388.697 429.691 387.388L432.839 382.228C434.392 382.933 436.001 382.941 437.656 382.242C439.318 381.542 440.685 380.308 441.764 378.538C443.209 376.168 443.584 373.757 442.891 371.295C442.199 368.84 440.405 366.726 437.51 364.96C434.614 363.193 431.923 362.569 429.431 363.086C426.941 363.6 424.978 365.045 423.532 367.416C422.44 369.211 421.954 371.011 422.087 372.822C422.217 374.63 422.927 376.077 424.213 377.172L421.204 382.109C418.636 380.203 417.175 377.642 416.821 374.433C416.468 371.225 417.273 368.01 419.234 364.794L419.226 364.788Z" fill="white"/>
<path d="M398.46 393.03L419.104 415.743L411.742 422.428C408.414 425.45 404.743 426.986 400.74 427.034C396.734 427.079 393.083 425.283 389.777 421.652C386.475 418.017 385.036 414.212 385.463 410.227C385.887 406.245 387.768 402.741 391.095 399.719L398.457 393.034L398.46 393.03ZM397.568 400.649L394.842 403.123C392.66 405.108 391.399 407.378 391.061 409.937C390.723 412.496 391.743 415.086 394.123 417.698C396.499 420.314 398.987 421.585 401.576 421.5C404.163 421.418 406.554 420.387 408.736 418.402L411.462 415.928L397.571 400.645L397.568 400.649Z" fill="white"/>
<path d="M361.231 422.195L375.047 449.595L356.807 458.774L354.557 454.312L367.629 447.733L364.274 441.076L353.784 446.357L351.534 441.894L362.021 436.618L358.33 429.3L344.829 436.097L342.559 431.596L361.228 422.198L361.231 422.195Z" fill="white"/>
<path d="M321.87 438.667L328.364 468.653L308.398 472.955L307.341 468.071L321.65 464.988L319.998 457.364L308.519 459.839L307.462 454.955L318.941 452.48L316.213 439.886L321.87 438.667Z" fill="white"/>
<path d="M266.643 443.767C270.782 444.02 274.234 445.605 276.986 448.523C279.737 451.441 280.967 455.38 280.67 460.337C280.374 465.294 278.654 469.051 275.515 471.612C272.375 474.174 268.674 475.323 264.419 475.065C260.657 474.835 257.579 473.648 255.192 471.496C252.804 469.344 251.586 466.675 251.544 463.481L257.364 463.838C257.522 465.601 258.269 467.053 259.609 468.189C260.945 469.322 262.664 469.957 264.766 470.081C267.595 470.255 269.979 469.439 271.917 467.64C273.856 465.842 274.923 463.292 275.119 459.998C275.32 456.673 274.564 453.971 272.863 451.892C271.158 449.81 268.922 448.688 266.148 448.52C264.05 448.392 262.128 448.883 260.397 449.99C258.659 451.098 257.744 452.454 257.652 454.058C257.622 454.555 257.737 454.947 257.999 455.241C258.26 455.535 258.64 455.697 259.133 455.725L265.347 456.106L265.082 460.525L256.945 460.03C255.573 459.945 254.412 459.393 253.465 458.37C252.518 457.347 252.084 456.122 252.17 454.692L252.855 443.277L258.019 443.59L257.729 448.444C258.408 446.903 259.555 445.706 261.173 444.859C262.789 444.005 264.62 443.642 266.663 443.764L266.643 443.767Z" fill="white"/>
<path d="M202.313 460.537L196.882 458.533L207.493 429.759L212.924 431.764L208.361 444.135L221.191 448.877L225.753 436.506L231.184 438.51L220.57 467.28L215.142 465.272L219.451 453.599L206.618 448.861L202.313 460.537Z" fill="white"/>
<path d="M187.188 418.152L170.209 443.69L165.354 440.461L182.333 414.923L187.188 418.152Z" fill="white"/>
<path d="M161.684 405.158L159.297 402.833C158.523 402.079 157.756 401.772 157.005 401.919C156.253 402.066 155.398 402.625 154.443 403.609L139.312 419.146L135.166 415.11L150.444 399.417C152.482 397.322 154.485 396.219 156.459 396.102C158.432 395.985 160.295 396.777 162.055 398.495L165.197 401.553L161.682 405.162L161.684 405.158Z" fill="white"/>
<path d="M131.462 359.61L124.304 374.937L130.519 376.119L138.622 371.06L141.714 376.006L115.698 392.25L112.606 387.304L123.941 380.226L106.073 376.856L102.236 370.724L118.54 373.828L127.644 353.516L131.455 359.611L131.462 359.61Z" fill="white"/>
<path d="M119.818 334.479L90.4661 343.387L88.7694 337.809L113.301 330.366L109.127 316.651L113.951 315.188L119.825 334.478L119.818 334.479Z" fill="white"/>
<path d="M110.14 294.875L79.4606 295.186L79.3875 288.484L101.947 278.966L79.1846 269.904L79.1104 263.244L109.79 262.933L109.848 268.368L89.5084 268.574L109.938 276.696L109.987 281.079L89.7426 289.652L110.082 289.446L110.141 294.882L110.14 294.875Z" fill="white"/>
<path d="M113.544 240.32L84.2054 231.308L86.0394 225.318L110.632 218.986L89.9291 212.628L91.6226 207.099L120.961 216.111L119.139 222.062L94.574 228.452L115.238 234.798L113.545 240.327L113.544 240.32Z" fill="white"/>
<path d="M138.926 183.809C136.42 187.507 133.116 189.741 129.012 190.506C124.908 191.272 120.984 190.381 117.233 187.841C113.483 185.301 111.203 181.981 110.394 177.883C109.585 173.785 110.432 169.891 112.939 166.193C115.428 162.517 118.731 160.3 122.846 159.544C126.962 158.787 130.885 159.671 134.61 162.198C138.334 164.724 140.61 168.041 141.43 172.141C142.254 176.244 141.416 180.133 138.926 183.809ZM134.73 181.014C136.304 178.694 136.764 176.21 136.118 173.568C135.472 170.926 133.879 168.744 131.34 167.021C128.801 165.298 126.178 164.623 123.472 164.997C120.765 165.37 118.628 166.713 117.053 169.033C115.496 171.33 115.048 173.806 115.706 176.456C116.363 179.106 117.964 181.294 120.503 183.018C123.043 184.741 125.662 185.413 128.356 185.03C131.048 184.652 133.176 183.314 134.733 181.017L134.73 181.014Z" fill="white"/>
<path d="M162.426 155.196L142.799 131.6L152.267 123.733C154.693 121.718 157.167 120.798 159.691 120.98C162.216 121.161 164.388 122.343 166.198 124.523C168.012 126.706 168.777 129.049 168.494 131.566C168.212 134.084 166.858 136.35 164.432 138.364L159.447 142.507L166.905 151.476L162.423 155.2L162.426 155.196ZM156.334 138.765L161.117 134.786C162.352 133.756 162.999 132.651 163.057 131.464C163.114 130.276 162.713 129.165 161.853 128.13C160.993 127.095 159.972 126.5 158.797 126.338C157.619 126.179 156.414 126.61 155.175 127.636L150.387 131.613L156.333 138.758L156.334 138.765Z" fill="white"/>
<path d="M218.525 103.782C220.133 107.482 220.404 111.124 219.346 114.702C218.289 118.281 216.132 121.092 212.881 123.138L213.42 124.383C213.873 125.426 214.433 126.06 215.103 126.282C215.773 126.503 216.643 126.38 217.715 125.914L221.251 124.383L222.964 128.324L219.184 129.963C216.584 131.087 214.461 131.395 212.822 130.881C211.18 130.364 209.861 128.957 208.859 126.65L208.212 125.161C204.468 126.145 200.916 125.812 197.557 124.16C194.198 122.508 191.709 119.819 190.091 116.093C188.288 111.941 188.145 107.918 189.653 104.029C191.165 100.144 193.974 97.308 198.076 95.5366C202.148 93.7725 206.129 93.6732 210.008 95.2404C213.889 96.8105 216.723 99.6596 218.516 103.787L218.525 103.782ZM194.912 105.669C194.044 108.256 194.223 110.962 195.443 113.777C196.664 116.592 198.514 118.562 200.994 119.685C203.472 120.811 205.982 120.821 208.53 119.718C211.104 118.604 212.826 116.761 213.698 114.183C214.571 111.606 214.396 108.909 213.173 106.099C211.952 103.284 210.099 101.31 207.616 100.168C205.133 99.0317 202.602 99.0177 200.028 100.131C197.48 101.235 195.776 103.079 194.908 105.667L194.912 105.669Z" fill="white"/>
<path d="M266.883 101.988L268.601 110.038L262.9 110.716L261.259 103.321C261.003 102.177 260.46 101.275 259.633 100.623C258.805 99.9715 257.824 99.7114 256.69 99.8495L250.12 100.633L251.495 112.076L245.708 112.765L242.049 82.3062L254.538 80.8187C257.669 80.4448 260.24 81.0144 262.247 82.5249C264.254 84.0353 265.426 86.1971 265.766 89.0133C266.123 91.9734 265.022 94.3238 262.464 96.0711C264.837 97.2017 266.308 99.1729 266.883 101.988ZM248.417 86.4432L249.524 95.6687L255.964 94.8999C257.56 94.7121 258.704 94.1273 259.395 93.1454C260.086 92.1635 260.352 91.0085 260.192 89.6738C260.032 88.3392 259.5 87.29 258.599 86.5292C257.699 85.7684 256.449 85.4838 254.857 85.6744L248.417 86.4432Z" fill="white"/>
<path d="M301.749 112.395C298.309 111.883 295.676 110.519 293.843 108.298C292.015 106.08 291.265 103.354 291.592 100.124L297.097 100.941C296.989 102.67 297.415 104.111 298.367 105.269C299.319 106.427 300.692 107.141 302.483 107.406C304.16 107.656 305.548 107.513 306.645 106.982C307.741 106.452 308.387 105.537 308.579 104.236C308.704 103.369 308.514 102.603 308.007 101.938C307.501 101.272 306.784 100.711 305.863 100.245C304.939 99.7835 303.925 99.3307 302.809 98.885C301.694 98.4392 300.585 97.921 299.494 97.3325C298.399 96.7411 297.411 96.0807 296.53 95.341C295.647 94.6051 294.998 93.6229 294.573 92.3924C294.149 91.1619 294.052 89.7676 294.283 88.2094C294.648 85.7251 295.918 83.8378 298.087 82.5484C300.255 81.2589 302.885 80.8448 305.981 81.3052C309.192 81.7805 311.675 83.0185 313.433 85.0218C315.192 87.0252 315.92 89.4483 315.619 92.2979L310.155 91.4881C310.204 90.1385 309.8 88.9834 308.937 88.0304C308.075 87.0774 306.847 86.4804 305.257 86.2424C303.75 86.0201 302.522 86.1643 301.558 86.6701C300.598 87.1789 300.037 87.9663 299.878 89.0352C299.747 89.9337 299.94 90.7198 300.459 91.4003C300.977 92.0807 301.702 92.648 302.624 93.0964C303.546 93.5449 304.581 93.9778 305.734 94.3981C306.884 94.8221 308.016 95.31 309.131 95.8748C310.245 96.4397 311.243 97.0886 312.122 97.8217C313.006 98.5576 313.665 99.5418 314.103 100.77C314.545 102.002 314.647 103.413 314.41 105.002C314 107.775 312.637 109.824 310.313 111.152C307.993 112.476 305.139 112.887 301.755 112.387L301.749 112.395Z" fill="white"/>
<path d="M339.959 122.471L350.04 98.8598L341.492 95.2081L343.45 90.6155L365.826 100.178L363.867 104.771L355.362 101.134L345.281 124.745L339.959 122.471Z" fill="white"/>
<path d="M380.288 146.394C377.416 144.131 375.734 141.546 375.243 138.628C374.75 135.714 375.63 132.819 377.89 129.95L390.005 114.564L394.311 117.956L382.171 133.376C380.906 134.981 380.405 136.579 380.667 138.158C380.928 139.737 381.851 141.155 383.437 142.4C385.021 143.649 386.619 144.215 388.23 144.111C389.837 144.003 391.276 143.146 392.541 141.542L404.681 126.122L408.954 129.488L396.839 144.874C394.579 147.743 391.982 149.282 389.043 149.497C386.104 149.712 383.187 148.676 380.292 146.397L380.288 146.394Z" fill="white"/>
<path d="M410.591 176.751L428.803 149.668L432.237 154.383L418.02 174.82L441.894 167.637L445.303 172.315L413.925 181.33L410.596 176.76L410.591 176.751Z" fill="white"/>
<path d="M432.545 214.747L458.958 196.646L460.751 202.239L441.611 215.026L464.725 214.642L466.238 219.358L447.204 232.478L470.236 231.84L472.013 237.39L439.998 237.996L438.257 232.57L456.927 219.748L434.272 220.127L432.547 214.743L432.545 214.747Z" fill="white"/>
</g>
<defs>
<clipPath id="clip0_93_2005">
<rect width="395.411" height="395.411" fill="white" transform="translate(554 238.975) rotate(127.184)"/>
</clipPath>
</defs>
</svg>
