<svg width="60" height="60" viewBox="0 0 60 60" fill="none" xmlns="http://www.w3.org/2000/svg">
<g clip-path="url(#clip0_475_2117)">
<path d="M60 21.25C60 21.1475 59.9875 21.045 59.9625 20.9475L54.9625 0.9475C54.8225 0.39 54.3225 0 53.75 0H6.25C5.6775 0 5.1775 0.39 5.0375 0.9475L0.0375 20.9475C0.0125 21.0475 0 21.1475 0 21.25C0 23.6275 0.955 25.7875 2.5 27.3675V51.25C2.5 56.075 6.425 60 11.25 60H28.75C33.575 60 37.5 56.075 37.5 51.25V29.155C39.0575 28.4125 40.365 27.2225 41.25 25.7525C42.7825 28.295 45.57 30 48.75 30H51.25C52.59 30 53.8625 29.695 55 29.155V58.75C55 59.44 55.56 60 56.25 60C56.94 60 57.5 59.44 57.5 58.75V27.4675C57.5 27.435 57.5 27.4025 57.495 27.37C59.0425 25.79 60 23.63 60 21.2475V21.25ZM28.75 57.5H11.25C7.805 57.5 5 54.695 5 51.25V45H35V51.25C35 54.695 32.195 57.5 28.75 57.5ZM35 42.5H5V29.155C6.1375 29.6975 7.41 30 8.75 30H11.25C14.43 30 17.2175 28.295 18.75 25.7525C20.2825 28.295 23.07 30 26.25 30H33.75C34.175 30 34.5925 29.97 35 29.91V42.5ZM48.75 27.5C45.3025 27.5 42.5 24.695 42.5 21.25C42.5 20.56 41.94 20 41.25 20C40.56 20 40 20.56 40 21.25C40 24.695 37.1975 27.5 33.75 27.5H26.25C22.805 27.5 20 24.695 20 21.25C20 20.56 19.44 20 18.75 20C18.06 20 17.5 20.56 17.5 21.25C17.5 24.695 14.695 27.5 11.25 27.5H8.75C7.1875 27.5 5.755 26.9225 4.6575 25.97C4.61 25.92 4.56 25.875 4.5075 25.835C3.3075 24.7225 2.5425 23.15 2.5 21.3975L7.2275 2.5H17.5V11.25C17.5 11.94 18.06 12.5 18.75 12.5C19.44 12.5 20 11.94 20 11.25V2.5H40V11.25C40 11.94 40.56 12.5 41.25 12.5C41.94 12.5 42.5 11.94 42.5 11.25V2.5H52.7725L57.4975 21.3975C57.42 24.7775 54.645 27.5 51.25 27.5H48.75Z" fill="#F8F8EA"/>
</g>
<defs>
<clipPath id="clip0_475_2117">
<rect width="60" height="60" fill="white"/>
</clipPath>
</defs>
</svg>
